PathFileType	4	(X/Y/Z)	c:\Git\powerlifing_model_clean\simulations\HC835B\Session1\HC835B_CUT_0002\marker_experimental.trc
DataRate	CameraRate	NumFrames	NumMarkers	Units	OrigDataRate	OrigDataStartFrame	OrigNumFrames
240.000000	240.000000	4	38	mm	240.000000	0	82
Frame#	Time	RPSI			LPSI			RASI			LASI			RTH1			RTH2			RTH3			RTH4			RSK1			RSK2			RSK3			RSK4			RCAL1			RCAL2			RCAL3			RST			RPT			RTN			RFMB			RSMB			RVMB			RFMH			RSMH			RVMH			RPM			LTH1			LTH2			LTH3			LTH4			LSK1			LSK2			LSK3			LSK4			LCAL1			LCAL2			LCAL3			LFMH			LVMH			
		X1	Y1	Z1	X2	Y2	Z2	X3	Y3	Z3	X4	Y4	Z4	X5	Y5	Z5	X6	Y6	Z6	X7	Y7	Z7	X8	Y8	Z8	X9	Y9	Z9	X10	Y10	Z10	X11	Y11	Z11	X12	Y12	Z12	X13	Y13	Z13	X14	Y14	Z14	X15	Y15	Z15	X16	Y16	Z16	X17	Y17	Z17	X18	Y18	Z18	X19	Y19	Z19	X20	Y20	Z20	X21	Y21	Z21	X22	Y22	Z22	X23	Y23	Z23	X24	Y24	Z24	X25	Y25	Z25	X26	Y26	Z26	X27	Y27	Z27	X28	Y28	Z28	X29	Y29	Z29	X30	Y30	Z30	X31	Y31	Z31	X32	Y32	Z32	X33	Y33	Z33	X34	Y34	Z34	X35	Y35	Z35	X36	Y36	Z36	X37	Y37	Z37	X38	Y38	Z38	

1	0	172.7199859619141	1111.252563476563	206.9559783935547	68.33938598632814	1082.2783203125	242.7192535400391	146.6140594482422	1062.587280273438	-1.889670372009278	-43.71331787109376	975.1927490234377	84.99668884277345	283.7608032226563	858.8557739257815	-99.28755950927737	244.9816131591797	871.8486938476565	-144.1017150878907	274.3662719726563	801.0166625976565	-159.939682006836	229.5066070556641	807.273864746094	-197.214096069336	343.7615966796876	374.5285339355469	-252.7812652587891	330.2509765625001	375.9156188964844	-312.7643737792969	344.9024658203126	324.3572387695313	-283.3739318847657	320.5568237304688	323.5740356445313	-338.2763366699219	336.8705139160157	154.9856719970703	-263.7408752441407	299.2920532226563	121.3584136962891	-270.1798706054688	361.1519165039063	118.5145797729492	-285.7971191406251	268.8758239746094	151.9578552246094	-328.0954284667969	368.9526672363282	140.9302215576172	-345.9159851074219	268.3437500000001	180.0381164550782	-378.6822204589844	260.6452636718751	169.9197235107422	-414.7174072265626	307.3397216796876	192.1176452636719	-433.097137451172	363.3833007812501	123.4346771240235	-396.023406982422	241.0333404541016	153.5961608886719	-467.4705810546876	289.3356933593751	167.1990661621094	-494.571746826172	356.4561157226563	125.7147293090821	-476.6392517089845	264.8456115722657	176.0293273925782	-545.7970581054689	59.50592422485353	727.1081542968751	269.5316162109376	53.84751129150392	693.2060546875001	218.960189819336	98.42866516113284	651.2403564453126	270.7229614257813	103.462646484375	623.5625610351564	216.2431182861329	360.2370910644532	426.143768310547	557.1289062500001	360.4867553710938	374.8912658691407	542.1631469726564	386.7549438476564	385.8542480468751	582.0119628906251	399.0320129394532	336.6502075195313	556.8989257812501	508.9279174804689	381.8684997558594	659.8255004882814	507.1277465820314	369.3216247558594	706.0656738281251	555.2543945312501	378.5982971191407	672.9108886718751	578.6467285156251	167.2356414794922	613.7822875976564	0	0	0	
2	0.004166666666666667	166.9020080566407	1111.949829101563	188.1839904785157	63.30013656616212	1082.452392578125	224.8744201660157	140.7002105712891	1062.078857421875	-20.08023262023926	-49.83779907226564	976.2849121093752	67.96975708007814	280.4912414550782	855.577331542969	-115.484001159668	241.1353302001954	867.303894042969	-160.0846252441407	271.2359619140626	796.5571289062502	-175.0323028564453	226.0874176025391	801.7009277343752	-212.1019897460938	338.1020202636719	370.3903198242188	-272.1820678710938	324.0474243164063	372.5961303710938	-332.0082702636719	339.5217895507813	320.7087097167969	-303.5625610351563	314.1992797851563	320.6776428222657	-358.0325012207032	331.7353515625001	151.0149841308594	-286.4842834472657	293.8881530761719	117.7972869873047	-292.0787353515626	355.2104187011719	114.5722808837891	-309.3288879394532	261.9509887695313	149.275634765625	-348.8535461425782	361.7344970703126	137.4480590820313	-369.4181518554688	260.9734802246094	177.9528961181641	-399.2767333984376	252.1607513427735	167.9860229492188	-435.1167602539064	297.9568176269532	190.7609558105469	-454.4949645996095	354.8287658691407	120.4102401733399	-419.5158081054689	230.9651184082032	152.5312957763672	-487.4463500976564	278.7257690429688	165.7455749511719	-515.7993164062501	345.7700805664063	123.5889434814453	-499.8026123046876	253.0241699218751	176.1080322265625	-565.8825073242189	54.40738677978517	725.8912963867189	249.9122924804688	47.3850326538086	692.5377197265626	199.1577758789063	92.39157104492189	649.5059814453126	250.0096588134766	96.14152526855472	622.1968383789064	195.2526855468751	354.6728820800782	433.6444396972657	537.9190063476564	355.1265563964844	381.9173278808594	525.1065673828126	383.2334289550782	393.1284790039064	564.8546142578126	394.4189758300782	343.7545471191407	541.6986083984376	505.1947021484376	393.9844055175782	643.0181274414064	502.843719482422	382.3782043457032	689.5801391601564	551.1544189453126	390.441375732422	656.5576782226564	571.7126464843751	177.2588806152344	602.7684326171876	0	0	0	
3	0.008333333333333333	160.5210723876953	1111.88818359375	169.0184936523438	58.28031539916994	1082.22607421875	207.1156616210938	134.7981567382813	1061.407592773438	-38.11384963989259	-56.04070281982423	977.2058105468752	50.9839553833008	277.2311706542969	852.2445068359377	-131.6071014404297	237.2091674804688	862.6511840820315	-175.9910736083985	268.2025756835938	792.1084594726565	-190.0191955566407	222.6887359619141	796.1719360351565	-226.8903198242188	333.2030639648438	366.5480346679688	-290.6234436035157	318.3894042968751	369.3591613769532	-350.2155761718751	334.2932434082032	317.1926574707032	-322.5074768066407	308.2570190429688	317.7269287109376	-376.6408386230469	327.2041625976563	147.2226104736328	-307.1125488281251	289.0669250488282	114.1548461914063	-312.3605957031251	349.9009094238282	110.8593215942383	-331.0857849121094	256.1616210937501	146.2660522460938	-368.2284240722657	355.2751770019532	134.1679840087891	-391.0641174316407	254.0780334472657	175.4292755126953	-418.367889404297	244.6898651123047	165.5557556152344	-454.1455078125001	289.6229858398438	188.7025451660157	-473.7552795410157	347.2074890136719	117.4616470336914	-441.1596679687501	221.6127166748047	150.476791381836	-505.7698364257814	269.2077636718751	163.8129425048828	-535.3143920898439	336.1823120117188	121.2724761962891	-521.1141357421876	242.3895874023438	175.1934967041016	-584.4454345703126	49.07548141479494	724.3751831054689	230.0116119384766	41.13588333129884	691.7444458007814	179.1756591796875	86.37200927734376	647.2554321289064	228.9437713623047	88.9011917114258	620.5786132812501	174.2016906738282	348.7810058593751	441.0181884765626	517.9273071289064	349.4975891113282	388.8460388183595	507.1368408203126	377.4921569824219	401.5892639160157	546.3870239257814	389.1348266601564	351.2470703125001	525.4828491210939	500.4446411132814	406.0428771972657	625.5139160156251	497.6384277343751	396.2221679687501	672.4343261718751	546.2610473632814	402.4125976562501	639.2680053710939	564.7163085937501	187.6893615722657	591.4266967773439	495.5974426269532	200.2094421386719	676.0391235351564	
4	0.0125	154.9128723144532	1111.041870117188	149.9375	52.39110946655275	1080.701049804688	187.8323822021485	129.02392578125	1060.669311523438	-56.1149368286133	-62.41572570800783	977.992370605469	33.95852661132813	273.6195983886719	848.710388183594	-147.2557830810547	233.5343475341797	858.1997070312502	-191.8750762939453	265.0158081054688	787.675720214844	-205.0024719238282	219.1001129150391	790.4344482421877	-241.1853179931641	328.2512207031251	362.7210083007813	-307.8765258789063	312.9630126953126	366.0729980468751	-367.3341369628907	329.2369079589844	313.7085266113282	-340.2018737792969	302.7106933593751	314.5773620605469	-394.1024475097657	322.9782104492188	143.7584381103516	-326.2672119140626	284.8196105957032	110.6404190063477	-331.0483398437501	345.2752380371094	107.4678115844727	-350.8664855957032	250.9839019775391	142.9969329833985	-386.1276855468751	349.5514526367188	131.2574310302735	-410.6008911132814	247.9761047363282	172.4512176513672	-436.0450744628907	238.4730072021485	162.080551147461	-471.5833435058595	282.2172546386719	185.5428314208985	-492.4031066894532	340.5030212402344	114.4701461791992	-460.8626403808595	213.5604095458985	147.7120208740235	-522.8822021484376	260.8125000000001	161.2287292480469	-553.3106079101564	327.8906250000001	118.5728302001953	-540.5020141601564	233.0511627197266	173.1798553466797	-601.6561279296876	43.58789062500001	722.3477783203126	209.9703674316407	35.00171661376954	690.1878051757814	158.9991912841797	80.06749725341798	644.9396972656251	207.7890625000001	81.47930908203126	618.6220092773439	152.7959442138672	342.3464965820313	447.8938293457032	497.0465393066407	343.4005432128907	395.3107910156251	488.371795654297	371.4277648925782	410.0147094726564	527.0908203125001	383.4407043457032	358.7796630859376	508.1204528808595	495.0610656738282	418.1844482421876	607.0017700195314	491.7774658203126	409.4880371093751	654.1478271484376	540.6356201171876	414.4108886718751	621.2547607421876	557.6770629882814	198.2967224121094	578.9962158203126	487.8297729492189	213.8334045410157	662.6765747070314	
